name GIL02_xslow2.mot
datacolumns 153
datarows 4
range 1.19999981 1.22499990
endheader

                time	           pelvis_tx	           pelvis_ty	           pelvis_tz	         pelvis_tilt	         pelvis_list	     pelvis_rotation	       hip_flexion_r	     hip_adduction_r	      hip_rotation_r	        knee_angle_r	       ankle_angle_r	    subtalar_angle_r	         mtp_angle_r	       hip_flexion_l	     hip_adduction_l	      hip_rotation_l	        knee_angle_l	       ankle_angle_l	    subtalar_angle_l	         mtp_angle_l	    lumbar_extension	      lumbar_bending	     lumbar_rotation	     ground_force_vx	     ground_force_vy	     ground_force_vz	     ground_force_px	     ground_force_py	     ground_force_pz	     ground_force_vx	     ground_force_vy	     ground_force_vz	     ground_force_px	     ground_force_py	     ground_force_pz	     ground_torque_x	     ground_torque_y	     ground_torque_z	     ground_torque_x	     ground_torque_y	     ground_torque_z	    ground_marker_px	    ground_marker_py	    ground_marker_pz	    ground_marker_px	    ground_marker_py	    ground_marker_pz	    ground_marker_px	    ground_marker_py	    ground_marker_pz	    ground_marker_px	    ground_marker_py	    ground_marker_pz	    ground_marker_px	    ground_marker_py	    ground_marker_pz	    ground_marker_px	    ground_marker_py	    ground_marker_pz	    ground_marker_px	    ground_marker_py	    ground_marker_pz	    ground_marker_px	    ground_marker_py	    ground_marker_pz	    ground_marker_px	    ground_marker_py	    ground_marker_pz	    ground_marker_px	    ground_marker_py	    ground_marker_pz	    ground_marker_px	    ground_marker_py	    ground_marker_pz	    ground_marker_px	    ground_marker_py	    ground_marker_pz	    ground_marker_px	    ground_marker_py	    ground_marker_pz	    ground_marker_px	    ground_marker_py	    ground_marker_pz	    ground_marker_px	    ground_marker_py	    ground_marker_pz	    ground_marker_px	    ground_marker_py	    ground_marker_pz	    ground_marker_px	    ground_marker_py	    ground_marker_pz	    ground_marker_px	    ground_marker_py	    ground_marker_pz	    ground_marker_px	    ground_marker_py	    ground_marker_pz	    ground_marker_px	    ground_marker_py	    ground_marker_pz	    ground_marker_px	    ground_marker_py	    ground_marker_pz	    ground_marker_px	    ground_marker_py	    ground_marker_pz	    ground_marker_px	    ground_marker_py	    ground_marker_pz	    ground_marker_px	    ground_marker_py	    ground_marker_pz	    ground_marker_px	    ground_marker_py	    ground_marker_pz	    ground_marker_px	    ground_marker_py	    ground_marker_pz	    ground_marker_px	    ground_marker_py	    ground_marker_pz	    ground_marker_px	    ground_marker_py	    ground_marker_pz	    ground_marker_px	    ground_marker_py	    ground_marker_pz	    ground_marker_px	    ground_marker_py	    ground_marker_pz	    ground_marker_px	    ground_marker_py	    ground_marker_pz	    ground_marker_px	    ground_marker_py	    ground_marker_pz	    ground_marker_px	    ground_marker_py	    ground_marker_pz	    ground_marker_px	    ground_marker_py	    ground_marker_pz	    ground_marker_px	    ground_marker_py	    ground_marker_pz	    ground_marker_px	    ground_marker_py	    ground_marker_pz	    ground_marker_px	    ground_marker_py	    ground_marker_pz	
          1.19999981	          1.88322735	          0.95030272	         -0.27694076	         -3.23637104	         -0.44734403	          2.64768529	         19.98333549	         -1.65904212	          7.98607254	        -10.49304867	         -6.30130672	          0.00000000	          0.00000000	        -10.91764832	          2.93444610	          9.32962132	        -18.11303520	          1.04033792	          0.00000000	          0.00000000	         -8.18698692	          3.62295055	         -5.05983686	        -44.25113439	        316.68762629	        -16.61994809	          1.97604980	          0.00000000	         -0.20624751	         52.81308846	        292.91187988	          7.87399456	          1.57030310	          0.00000000	         -0.31035397	          0.00000000	         -0.85705664	          0.00000000	          0.00000000	         -0.46140417	          0.00000000	          1.79947042	          0.89115614	         -0.26550186	          1.79563904	          0.86808437	         -0.19793537	          1.78862596	          0.86877859	         -0.34819955	          1.91460717	          0.47370285	         -0.19336979	          1.68755746	          0.46398753	         -0.32393426	          1.95413828	          0.07075553	         -0.20927878	          1.47577822	          0.12647894	         -0.31099993	          1.88322735	          0.95030272	         -0.27694076	          1.88878560	          0.94975251	         -0.15784778	          1.87766922	          0.95085293	         -0.39603376	          1.69942415	          1.00026190	         -0.23108099	          1.70236540	          0.99972236	         -0.31626654	          1.92459965	          0.47738305	         -0.13584712	          1.69328284	          0.45911053	         -0.38144457	          1.87990797	          0.46151188	         -0.24415120	          1.67319894	          0.45750877	         -0.26648840	          1.94604051	          0.06841730	         -0.17017686	          1.46107721	          0.13435242	         -0.34625459	          1.95942855	          0.08646292	         -0.23761193	          1.48454916	          0.13918485	         -0.28368109	          1.69527030	          1.41936564	         -0.24844253	          1.82096732	          1.33547771	         -0.20340215	          1.82641721	          1.34065211	         -0.30762616	          1.80675924	          1.34664178	         -0.25315523	          1.88097322	          1.17977726	         -0.26923135	          1.94461966	          0.57688218	         -0.06470136	          1.85486209	          0.50653839	         -0.32561839	          1.93396068	          0.64439982	         -0.12844075	          1.80197334	          0.57778502	         -0.36853656	          1.94857013	          0.56022668	         -0.15500586	          1.75947511	          0.50101733	         -0.36179489	          1.96142542	          0.20163944	         -0.08120032	          1.55581844	          0.23613544	         -0.43299660	          1.94679070	          0.16947801	         -0.15333053	          1.52123415	          0.21520989	         -0.36234125	          2.08034992	          0.04052967	         -0.20333806	          1.56208611	          0.04085615	         -0.32215175	
          1.20833325	          1.88884974	          0.95120144	         -0.27590343	         -3.20377827	         -0.46511963	          2.67520666	         19.59033394	         -1.61683595	          7.58949089	        -10.57875633	         -5.82104254	          0.00000000	          0.00000000	        -10.62007523	          2.83297539	          8.81964779	        -19.14631271	         -0.10063182	          0.00000000	          0.00000000	         -7.98945332	          3.68664241	         -5.05362320	        -45.06392896	        331.49450921	        -18.08184910	          1.97519165	          0.00000000	         -0.20626563	         50.56442640	        272.67239533	          7.41793664	          1.57058618	          0.00000000	         -0.31040546	          0.00000000	         -0.89003662	          0.00000000	          0.00000000	         -0.49050342	          0.00000000	          1.80443239	          0.89116597	         -0.26405269	          1.80135083	          0.86894733	         -0.19683608	          1.79425550	          0.86961156	         -0.34709653	          1.91776514	          0.47403514	         -0.19244845	          1.69542122	          0.46394393	         -0.32353023	          1.95427620	          0.07057006	         -0.20909151	          1.47946858	          0.12905928	         -0.31115893	          1.88884974	          0.95120144	         -0.27590343	          1.89447725	          0.95067465	         -0.15672669	          1.88322222	          0.95172828	         -0.39508018	          1.70512092	          1.00104845	         -0.22990784	          1.70818031	          1.00044286	         -0.31503794	          1.92744350	          0.47752801	         -0.13486044	          1.70066929	          0.45932052	         -0.38110697	          1.88353956	          0.46232855	         -0.24313177	          1.68053651	          0.45813012	         -0.26647270	          1.94620979	          0.06822687	         -0.16998345	          1.46447444	          0.13743481	         -0.34617358	          1.95973444	          0.08637887	         -0.23737912	          1.48876369	          0.14174072	         -0.28372231	          1.70004690	          1.42000401	         -0.24721397	          1.82608807	          1.33650494	         -0.20176721	          1.83151114	          1.34185314	         -0.30672884	          1.81192005	          1.34764612	         -0.25184807	          1.88668513	          1.18112886	         -0.26816481	          1.94770956	          0.57661116	         -0.06337117	          1.86318398	          0.50721425	         -0.32649729	          1.93822002	          0.64426708	         -0.12678809	          1.80997884	          0.57763028	         -0.36892435	          1.95220339	          0.56061959	         -0.15311995	          1.76665103	          0.50088239	         -0.36208779	          1.96269119	          0.20127416	         -0.08082539	          1.55959702	          0.23887837	         -0.43298239	          1.94756556	          0.16902871	         -0.15297893	          1.52587497	          0.21767893	         -0.36195281	          2.08035231	          0.04045437	         -0.20326838	          1.56305206	          0.04086719	         -0.32187712	
          1.21666646	          1.89446712	          0.95207179	         -0.27484390	         -3.15842533	         -0.49256346	          2.69439054	         19.16751862	         -1.55738807	          7.20373821	        -10.62840080	         -5.37914228	          0.00000000	          0.00000000	        -10.30821705	          2.70139766	          8.20513248	        -20.20214081	         -1.32937801	          0.00000000	          0.00000000	         -7.83095980	          3.64643908	         -5.03228569	        -45.87136522	        347.05750327	        -19.09382000	          1.97452246	          0.00000000	         -0.20632965	         48.03308908	        252.01984371	          6.84486874	          1.57098999	          0.00000000	         -0.31056833	          0.00000000	         -0.91500659	          0.00000000	          0.00000000	         -0.51974414	          0.00000000	          1.81125140	          0.89276373	         -0.26237890	          1.80706847	          0.86977834	         -0.19570652	          1.79990530	          0.87038064	         -0.34596398	          1.92081141	          0.47429132	         -0.19151652	          1.70349145	          0.46381190	         -0.32325235	          1.95442259	          0.07039546	         -0.20891778	          1.48338878	          0.13157965	         -0.31133166	          1.89446712	          0.95207179	         -0.27484390	          1.90015447	          0.95159364	         -0.15554364	          1.88877964	          0.95254999	         -0.39414415	          1.71077919	          1.00175881	         -0.22870243	          1.71401763	          1.00109899	         -0.31380305	          1.93018401	          0.47759762	         -0.13386694	          1.70817101	          0.45948181	         -0.38090089	          1.88615811	          0.46392590	         -0.24255736	          1.68922484	          0.45720500	         -0.26627043	          1.94635248	          0.06803905	         -0.16981123	          1.46805263	          0.14049360	         -0.34606412	          1.95999408	          0.08643670	         -0.23708136	          1.49316311	          0.14399135	         -0.28395805	          1.70502710	          1.42047417	         -0.24618146	          1.83119524	          1.33775413	         -0.20043121	          1.83650661	          1.34303653	         -0.30550680	          1.81704319	          1.34856200	         -0.25053123	          1.89245033	          1.18260038	         -0.26679298	          1.95070374	          0.57635641	         -0.06204299	          1.87165713	          0.50778419	         -0.32773948	          1.94268048	          0.64449912	         -0.12512940	          1.81758940	          0.57765472	         -0.36937526	          1.95557296	          0.56091952	         -0.15160708	          1.77423263	          0.50037605	         -0.36246818	          1.96381080	          0.20086247	         -0.08046061	          1.56343555	          0.24171318	         -0.43300432	          1.94792676	          0.16838534	         -0.15281659	          1.53017211	          0.22035073	         -0.36152309	          2.08037853	          0.04034316	         -0.20321755	          1.56405246	          0.04082658	         -0.32156643	
          1.22499990	          1.90006471	          0.95291847	         -0.27375048	         -3.09679317	         -0.53807992	          2.71345258	         18.71094131	         -1.47072053	          6.83163357	        -10.63966846	         -4.97924900	          0.00000000	          0.00000000	         -9.98316193	          2.52591586	          7.50960302	        -21.28327370	         -2.66503882	          0.00000000	          0.00000000	         -7.79303598	          3.70981121	         -5.18819475	        -46.67376679	        363.62397078	        -19.66488656	          1.97398047	          0.00000000	         -0.20643073	         45.11247436	        230.99865088	          6.06787259	          1.57157178	          0.00000000	         -0.31077621	          0.00000000	         -0.92546289	          0.00000000	          0.00000000	         -0.55264313	          0.00000000	          1.81681812	          0.89322007	         -0.26066387	          1.81279624	          0.87058520	         -0.19451098	          1.80555308	          0.87107760	         -0.34476504	          1.92374623	          0.47447053	         -0.19058675	          1.71176350	          0.46358803	         -0.32310474	          1.95458639	          0.07024138	         -0.20876895	          1.48754680	          0.13406073	         -0.31152958	          1.90006471	          0.95291847	         -0.27375048	          1.90582299	          0.95252705	         -0.15430033	          1.89430642	          0.95330989	         -0.39320067	          1.71639311	          1.00239229	         -0.22747239	          1.71982002	          1.00168741	         -0.31257015	          1.93283641	          0.47758833	         -0.13288149	          1.71579838	          0.45959118	         -0.38082603	          1.88851988	          0.46531492	         -0.24232358	          1.69925785	          0.45517975	         -0.26616132	          1.94648337	          0.06786452	         -0.16967046	          1.47182775	          0.14354767	         -0.34593752	          1.96005762	          0.08629611	         -0.23692009	          1.49735987	          0.14584243	         -0.28420976	          1.71029520	          1.42092931	         -0.24496852	          1.83625996	          1.33857286	         -0.19935752	          1.84179330	          1.34384084	         -0.30411005	          1.82213914	          1.34939039	         -0.24923840	          1.89789283	          1.18349826	         -0.26540986	          1.95363379	          0.57611662	         -0.06074226	          1.88025856	          0.50824589	         -0.32930472	          1.94699585	          0.64462674	         -0.12359197	          1.82519567	          0.57826430	         -0.36966380	          1.95884728	          0.56061727	         -0.15052779	          1.78242135	          0.49994785	         -0.36296639	          1.96480775	          0.20041144	         -0.08011474	          1.56734824	          0.24462874	         -0.43305808	          1.94811642	          0.16764584	         -0.15267254	          1.53449929	          0.22270581	         -0.36148638	          2.08042002	          0.04020330	         -0.20318455	          1.56508505	          0.04073583	         -0.32123584	
